<svg width="30" height="19" viewBox="0 0 30 19" fill="none" xmlns="http://www.w3.org/2000/svg">
<path d="M18.3961 9.9073C18.3961 9.31801 18.3348 8.86377 18.2488 8.40953H9.75328V11.5033H14.8604C14.6517 12.8169 13.3135 15.3827 9.75328 15.3827C6.68408 15.3827 4.17962 12.8414 4.17962 9.69859C4.17962 6.55573 6.68408 4.01444 9.75328 4.01444C11.5089 4.01444 12.6752 4.76332 13.3381 5.40172L15.7812 3.05685C14.2098 1.58364 12.1841 0.699707 9.75328 0.699707C4.78118 0.699707 0.754395 4.72649 0.754395 9.69859C0.754395 14.6707 4.78118 18.6975 9.75328 18.6975C14.9464 18.6975 18.3961 15.0513 18.3961 9.9073ZM29.0401 8.40953H26.4743V5.84368H23.8961V8.40953H21.3303V10.9877H23.8961V13.5535H26.4743V10.9877H29.0401V8.40953Z" fill="white"/>
</svg>
