<svg width="20" height="20" viewBox="0 0 20 20" fill="none" xmlns="http://www.w3.org/2000/svg">
<path d="M19.5188 9.69859C19.5188 4.49323 15.2955 0.27002 10.0902 0.27002C4.88484 0.27002 0.661621 4.49323 0.661621 9.69859C0.661621 13.5658 2.98193 16.8805 6.30894 18.3414C6.28439 17.6785 6.29667 16.8805 6.46854 16.1685C6.46854 16.1685 6.65269 15.4073 7.68394 11.0368C7.37702 10.4352 7.37702 9.53899 7.37702 9.53899C7.37702 8.13944 8.18729 7.09591 9.19399 7.09591C10.0534 7.09591 10.4708 7.74658 10.4708 8.52002C10.4708 9.3794 9.91832 10.6685 9.63595 11.8593C9.40269 12.866 10.1393 13.6763 11.1214 13.6763C12.9139 13.6763 14.117 11.3805 14.117 8.66734C14.117 6.59256 12.7174 5.04569 10.1884 5.04569C7.32792 5.04569 5.54778 7.18185 5.54778 9.56355C5.54778 10.3861 5.79332 10.9631 6.1739 11.4173C6.34577 11.626 6.37033 11.6997 6.30894 11.9452C6.25984 12.1171 6.16162 12.5345 6.11251 12.6941C6.05113 12.9397 5.8547 13.0256 5.646 12.9397C4.33238 12.3995 3.71854 10.9508 3.71854 9.33029C3.71854 6.65395 5.97747 3.43743 10.4462 3.43743C14.0556 3.43743 16.425 6.05239 16.425 8.83922C16.425 12.5468 14.3625 15.3091 11.3301 15.3091C10.3112 15.3091 9.35359 14.7566 9.03439 14.1305C8.48193 16.3035 8.37144 16.7209 8.37144 16.7209C8.17501 17.4452 7.76988 18.1696 7.41385 18.7343C8.27323 18.9921 9.15716 19.1272 10.0902 19.1272C15.2955 19.1272 19.5188 14.9039 19.5188 9.69859Z" fill="white"/>
</svg>
