<svg width="20" height="17" viewBox="0 0 20 17" fill="none" xmlns="http://www.w3.org/2000/svg">
<path d="M19.9918 2.70738C19.2797 3.0143 18.5063 3.23528 17.7083 3.32122C18.5308 2.83015 19.1569 2.05671 19.4516 1.13595C18.6904 1.59019 17.8311 1.92167 16.9349 2.09354C16.2105 1.3201 15.1793 0.841309 14.0375 0.841309C11.84 0.841309 10.0721 2.62144 10.0721 4.80671C10.0721 5.11363 10.109 5.42055 10.1703 5.71519C6.88016 5.54332 3.94601 3.97189 1.994 1.56564C1.65025 2.15492 1.45382 2.83015 1.45382 3.56675C1.45382 4.94175 2.1536 6.15716 3.22168 6.86921C2.57101 6.84466 1.95717 6.6605 1.42927 6.36586C1.42927 6.37814 1.42927 6.40269 1.42927 6.41497C1.42927 8.34242 2.79199 9.93841 4.60896 10.3067C4.27748 10.3926 3.92146 10.4418 3.56543 10.4418C3.30762 10.4418 3.06208 10.4172 2.81655 10.3804C3.31989 11.9518 4.78083 13.0935 6.52414 13.1304C5.16141 14.1985 3.45494 14.8246 1.60114 14.8246C1.26967 14.8246 0.962751 14.8123 0.643555 14.7755C2.39914 15.9049 4.48619 16.5556 6.73284 16.5556C14.0253 16.5556 18.0152 10.5154 18.0152 5.27323C18.0152 5.10135 18.0152 4.92948 18.0029 4.7576C18.7764 4.19287 19.4516 3.49309 19.9918 2.70738Z" fill="white"/>
</svg>
